<?xml version="1.0" encoding="UTF-8" standalone="no"?>
<!-- Generator: Adobe Illustrator 21.0.0, SVG Export Plug-In . SVG Version: 6.00 Build 0)  -->

<svg
   xmlns:dc="http://purl.org/dc/elements/1.1/"
   xmlns:cc="http://creativecommons.org/ns#"
   xmlns:rdf="http://www.w3.org/1999/02/22-rdf-syntax-ns#"
   xmlns:svg="http://www.w3.org/2000/svg"
   xmlns="http://www.w3.org/2000/svg"
   xmlns:sodipodi="http://sodipodi.sourceforge.net/DTD/sodipodi-0.dtd"
   xmlns:inkscape="http://www.inkscape.org/namespaces/inkscape"
   version="1.1"
   id="Capa_1"
   x="0px"
   y="0px"
   viewBox="0 0 447.4 499.5"
   style="enable-background:new 0 0 447.4 499.5;"
   xml:space="preserve"
   inkscape:version="0.91 r13725"
   sodipodi:docname="logodef.svg"><metadata
     id="metadata277"><rdf:RDF><cc:Work
         rdf:about=""><dc:format>image/svg+xml</dc:format><dc:type
           rdf:resource="http://purl.org/dc/dcmitype/StillImage" /></cc:Work></rdf:RDF></metadata><defs
     id="defs275" /><sodipodi:namedview
     pagecolor="#ffffff"
     bordercolor="#666666"
     borderopacity="1"
     objecttolerance="10"
     gridtolerance="10"
     guidetolerance="10"
     inkscape:pageopacity="0"
     inkscape:pageshadow="2"
     inkscape:window-width="1087"
     inkscape:window-height="798"
     id="namedview273"
     showgrid="false"
     inkscape:zoom="0.47247247"
     inkscape:cx="223.7"
     inkscape:cy="249.75"
     inkscape:window-x="392"
     inkscape:window-y="106"
     inkscape:window-maximized="0"
     inkscape:current-layer="Capa_1" /><style
     type="text/css"
     id="style3">
	.st0{fill-rule:evenodd;clip-rule:evenodd;fill:#DF081E;}
	.st1{fill-rule:evenodd;clip-rule:evenodd;fill:#221E20;}
	.st2{fill-rule:evenodd;clip-rule:evenodd;fill:#1B161C;}
	.st3{fill-rule:evenodd;clip-rule:evenodd;fill:#FFFFFF;}
	.st4{fill:#FFFFFF;}
	.st5{fill:none;stroke:#FFFFFF;stroke-miterlimit:10;}
</style><g
     id="g5"><g
       id="g7"><g
         id="g9"><path
           class="st0"
           d="M0,160.4h63.5c-5.3,19.2-4.8,20,2.6,26.5c16.4,14.1,55.9,33.3,70.6,45.9l0.1,1c-7.2,0.7-15.5,2.3-17.5,16.3     c0.8,9.8,6.1,16,17.5,16.5l0.1,1.8h-10.1l-17.3,19.2l2.5,10.2l-10.7,27.9l12.6,14.9l-3.2,31.8l14.4,0.1v9.7H0V160.4z"
           id="path11" /><path
           class="st0"
           d="M442.1,159.9l-79.1,0.2c19.7,61.4,20.8,99.6-31,135.5l-0.1,86.8l110.2-0.2L442.1,159.9z"
           id="path13" /><path
           class="st1"
           d="M101.2,0c76.6,40.9,167.1,140.1,203.4,136.4c13.8-12.5,9.1-41.7,10.8-65.5c1.8-24.5,9-37.4,41-34.4     c-2.7,10.5-2.5,20.8-3.1,31c-4.6,83.3,50.2,159.3,1,212.4c-10.8,11.7-27.8,18.4-47.9,17.8c-47.2-9.6-189.9-82.6-230.2-116.4     c-10.7-9-5.9-10-0.5-31.5c31.1,18.9,64.1,36.8,96.1,55.2c-29.5-29.2-91.7-64.2-116.1-79.4c-9.8-6.1-1.7-19.7,0.8-33     c46.9,25.2,91,53.2,136.6,79.9C152.6,134.2,87,95.2,57.9,74.2C52,70,59.5,48.5,62.9,37.8c55.6,34.4,110.3,71.7,164.4,109.9     c-22-25.8-58.4-52.8-79.6-71c-28.4-24.3-49.3-30.4-56.1-46C88.7,23.9,93.7,15.7,101.2,0L101.2,0z"
           id="path15" /><path
           class="st2"
           d="M101.2,0c76.6,40.9,167.1,140.1,203.4,136.4c13.8-12.5,9.1-41.7,10.8-65.5c1.8-24.5,9-37.4,41-34.4     c-2.7,10.5-2.5,20.8-3.1,31c-4.6,83.3,50.2,159.3,1,212.4c-10.8,11.7-27.8,18.4-47.9,17.8c-47.2-9.6-189.9-82.6-230.2-116.4     c-10.7-9-5.9-10-0.5-31.5c31.1,18.9,64.1,36.8,96.1,55.2c-29.5-29.2-91.7-64.2-116.1-79.4c-9.8-6.1-1.7-19.7,0.8-33     c46.9,25.2,91,53.2,136.6,79.9C152.6,134.2,87,95.2,57.9,74.2C52,70,59.5,48.5,62.9,37.8c55.6,34.4,110.3,71.7,164.4,109.9     c-22-25.8-58.4-52.8-79.6-71c-28.4-24.3-49.3-30.4-56.1-46C88.7,23.9,93.7,15.7,101.2,0L101.2,0z"
           id="path17" /><path
           class="st3"
           d="M90.2,5.9c76.7,41,167.1,140.2,203.4,136.4c13.8-12.5,9-41.7,10.8-65.4c1.8-24.6,9.1-37.5,41.1-34.4     c-2.7,10.4-2.5,20.7-3.1,31c-4.6,83.2,50.2,159.3,1.1,212.4c-10.8,11.7-27.9,18.5-47.9,17.8C248.4,294,105.6,221,65.3,187.2     c-10.7-8.9-5.9-10-0.5-31.4c31.1,18.8,64,36.7,96.1,55.1c-29.5-29.1-91.7-64.2-116.1-79.3c-9.8-6.2-1.7-19.7,0.7-33     c47,25.2,91.1,53.3,136.7,79.8C141.7,140.2,76,101.1,46.8,80.1C41,75.9,48.5,54.5,52,43.6c55.6,34.5,110.3,71.7,164.4,109.9     c-21.9-25.8-58.5-52.8-79.6-71c-28.5-24.3-49.3-30.4-56.1-45.9C77.7,29.8,82.8,21.7,90.2,5.9L90.2,5.9z"
           id="path19" /><rect
           x="136.4"
           y="233.2"
           class="st3"
           width="195.8"
           height="149.7"
           id="rect21" /><polygon
           class="st2"
           points="306.1,382.5 332.3,382.6 332.1,297 329.7,252.1 304.2,252.1    "
           id="polygon23" /><path
           class="st2"
           d="M315.2,217.6c8.3,0,14.9,6.9,14.9,15.4c0,8.5-6.6,15.3-14.9,15.3c-8.3,0-15-6.9-15-15.3     C300.3,224.4,307,217.6,315.2,217.6L315.2,217.6z"
           id="path25" /><polygon
           class="st3"
           points="296.1,382.6 306.1,382.6 306,373.3 322.1,373.3 321.9,287.7 319.5,242.8 294,242.8    "
           id="polygon27" /><path
           class="st3"
           d="M305.1,208.3c8.3,0,14.9,6.9,14.9,15.4c0,8.5-6.6,15.3-14.9,15.3c-8.3,0-15-6.8-15-15.3     C290.1,215.2,296.8,208.3,305.1,208.3L305.1,208.3z"
           id="path29" /><path
           class="st2"
           d="M231.7,383.2l-29,0.2L199.8,234l13.8-21.3c6-1.1,18.6,4.1,17.4,17.1c-0.5,5.8-1.9,14.9-17.3,14.4l-0.2,2.7     l19.7,7.7l-2.6,44.8L231.7,383.2z"
           id="path31" /><path
           class="st3"
           d="M218,365.7h-30l-0.4-133.5l12.1-26.4c6.1-1,18.6,4.1,17.4,17.1c-0.5,5.8-1.9,14.9-17.3,14.5l-0.2,2.7     l19.8,7.7l-2.6,44.8L218,365.7z"
           id="path33" /><polygon
           class="st1"
           points="242.8,383.1 264.5,383.1 259.6,345.3 270.9,336 266.8,298.6 270.3,286.6 256.9,268 242,266.9      226.9,310.7 239.1,316.2 231.4,341.8 242.9,343.5    "
           id="polygon35" /><path
           class="st2"
           d="M254.1,233.5c8.4,0,15.2,7.2,15.2,16.1c0,8.8-6.8,16.1-15.2,16.1c-8.4,0-15.2-7.2-15.2-16.1     C238.9,240.8,245.7,233.5,254.1,233.5L254.1,233.5z"
           id="path37" /><polygon
           class="st3"
           points="230.4,383.4 242,382.9 242.1,373.2 253.2,373.2 250.7,338.9 259.8,332.4 255.5,293.2 259.2,280.5      245,261 229.5,259.8 213.7,305.9 226.4,311.6 218.4,338.4 230.4,340.2    "
           id="polygon39" /><path
           class="st3"
           d="M242.6,225.6c8.4,0,15.2,7.2,15.2,16.1c0,8.8-6.8,16-15.2,16c-8.4,0-15.2-7.2-15.2-16     C227.3,232.9,234.2,225.6,242.6,225.6L242.6,225.6z"
           id="path41" /><polygon
           class="st2"
           points="273.9,382.9 298,382.9 298.5,362.7 308.9,362.7 304.7,347.3 311.5,345.2 293,318.7 277.4,318.7      269.3,345.2 278.2,349.3 271.4,357.8    "
           id="polygon43" /><path
           class="st2"
           d="M287.5,288.5c6.9,0,12.5,5.9,12.5,13c0,7.2-5.6,13-12.5,13c-6.9,0-12.5-5.8-12.5-13     C275,294.4,280.6,288.5,287.5,288.5L287.5,288.5z"
           id="path45" /><polygon
           class="st3"
           points="264.5,382.8 276.5,382.9 277.1,375.2 287.6,375.2 288.1,355.5 298.5,355.4 294.3,340 301.2,337.9      282.6,311.5 267.1,311.5 258.9,337.9 267.8,342.1 261.1,350.5    "
           id="polygon47" /><path
           class="st3"
           d="M277.2,281.3c6.9,0,12.5,5.8,12.5,13c0,7.2-5.7,13-12.5,13c-6.9,0-12.5-5.9-12.5-13     C264.7,287.1,270.3,281.3,277.2,281.3L277.2,281.3z"
           id="path49" /><path
           class="st2"
           d="M146.1,243.9c8.5,0,15.5,7.3,15.5,16.2c0,8.9-7,16.2-15.5,16.2c-8.6,0-15.5-7.3-15.5-16.2     C130.7,251.2,137.6,243.9,146.1,243.9L146.1,243.9z"
           id="path51" /><polygon
           class="st2"
           points="161.8,382.1 123.6,382.1 126.8,350.5 114.5,336.4 125.4,306.7 122.5,297.1 140.2,278.2 150.8,278.2      158.3,300.6 153,312 163.2,342.6 148.1,348.6    "
           id="polygon53" /><path
           class="st3"
           d="M129.3,236.3c8.6,0,15.5,7.3,15.5,16.2c0,9-6.9,16.2-15.5,16.2c-8.5,0-15.5-7.2-15.5-16.2     C113.8,243.6,120.8,236.3,129.3,236.3L129.3,236.3z"
           id="path55" /><polygon
           class="st3"
           points="144.9,374.5 106.8,374.5 109.9,342.9 97.7,328.8 108.5,299.1 105.6,289.6 123.3,270.6 133.9,270.6      141.3,293 136.2,304.4 146.4,335 131.3,341    "
           id="polygon57" /><polygon
           class="st2"
           points="167.3,381.8 192.2,381.8 192.2,356.7 193.9,331.5 186.6,318.5 172.9,318.1 165.4,329.8 166.1,366.1         "
           id="polygon59" /><path
           class="st2"
           d="M176.5,289.7c7,0,12.6,5.8,12.6,12.9c0,7.1-5.6,12.9-12.6,12.9c-7,0-12.6-5.8-12.6-12.9     C163.9,295.5,169.5,289.7,176.5,289.7L176.5,289.7z"
           id="path61" /><polygon
           class="st3"
           points="155,370.1 180,370.1 180,345.2 181.7,319.8 174.3,306.9 160.7,306.5 153.1,318.2 153.8,354.5    "
           id="polygon63" /><path
           class="st3"
           d="M164.3,278.1c7,0,12.7,5.7,12.7,12.9c0,7-5.6,12.8-12.7,12.8c-6.9,0-12.7-5.7-12.7-12.8     C151.6,283.8,157.4,278.1,164.3,278.1L164.3,278.1z"
           id="path65" /><g
           id="g67"><path
             class="st4"
             d="M0.1,418.1h7.2c4.7,0,7.8,0.2,9.5,0.7c1.6,0.4,2.9,1.1,3.7,2.1c0.9,1,1.4,2.1,1.6,3.3      c0.2,1.2,0.3,3.6,0.3,7.1v13c0,3.3-0.2,5.6-0.5,6.7c-0.3,1.1-0.9,2-1.7,2.6c-0.8,0.6-1.7,1.1-2.9,1.3c-1.2,0.3-2.9,0.4-5.2,0.4      H0.1V418.1z M9.7,424.5v24.4c1.4,0,2.3-0.3,2.6-0.8c0.3-0.6,0.5-2.1,0.5-4.6v-14.5c0-1.7-0.1-2.8-0.2-3.2      c-0.1-0.5-0.3-0.8-0.7-1C11.5,424.6,10.8,424.5,9.7,424.5z"
             id="path69" /><path
             class="st4"
             d="M27.3,418.1h16.1v7.4H37v7.1h6v7.1h-6v8.2h7.1v7.4H27.3V418.1z"
             id="path71" /><path
             class="st4"
             d="M47.1,418.1h16.4v7.4h-6.7v7.1h6v7.1h-6v15.6h-9.7V418.1z"
             id="path73" /><path
             class="st4"
             d="M66.8,418.1h16.1v7.4h-6.4v7.1h6v7.1h-6v8.2h7.1v7.4H66.8V418.1z"
             id="path75" /><path
             class="st4"
             d="M108.2,418.1v37.2h-8.5l-5-16.9v16.9h-8.1v-37.2h8.1l5.4,16.7v-16.7H108.2z"
             id="path77" /><path
             class="st4"
             d="M131.8,429.3h-9v-2.8c0-1.3-0.1-2.1-0.4-2.5c-0.2-0.3-0.6-0.5-1.2-0.5c-0.6,0-1,0.2-1.3,0.7      c-0.3,0.5-0.5,1.2-0.5,2.2c0,1.2,0.2,2.2,0.5,2.8c0.4,0.6,1.2,1.4,2.8,2.3c4.3,2.5,7,4.7,8.1,6.3c1.1,1.7,1.7,4.3,1.7,7.9      c0,2.6-0.3,4.6-0.9,5.8c-0.6,1.3-1.8,2.3-3.6,3.2c-1.8,0.9-3.8,1.3-6.2,1.3c-2.6,0-4.8-0.5-6.6-1.5c-1.8-1-3-2.2-3.6-3.7      c-0.6-1.5-0.8-3.7-0.8-6.5V442h9v4.5c0,1.4,0.1,2.3,0.4,2.7c0.3,0.4,0.7,0.6,1.4,0.6c0.7,0,1.1-0.2,1.4-0.7      c0.3-0.5,0.5-1.3,0.5-2.3c0-2.2-0.3-3.6-0.9-4.3c-0.6-0.7-2.1-1.8-4.5-3.4c-2.4-1.6-4-2.7-4.8-3.5c-0.8-0.7-1.4-1.7-1.9-3      c-0.5-1.3-0.8-2.9-0.8-4.9c0-2.8,0.4-4.9,1.1-6.2c0.7-1.3,1.9-2.3,3.5-3.1c1.6-0.8,3.6-1.1,5.9-1.1c2.5,0,4.6,0.4,6.4,1.2      c1.8,0.8,3,1.8,3.5,3.1c0.6,1.2,0.9,3.3,0.9,6.3V429.3z"
             id="path79" /><path
             class="st4"
             d="M158.1,439.8c0,3.7-0.1,6.4-0.2,7.9c-0.2,1.6-0.7,3-1.6,4.3c-1,1.3-2.2,2.3-3.8,3c-1.6,0.7-3.4,1-5.5,1      c-2,0-3.8-0.3-5.4-1c-1.6-0.7-2.8-1.6-3.8-2.9c-1-1.3-1.5-2.7-1.7-4.2c-0.2-1.5-0.3-4.2-0.3-8v-6.3c0-3.7,0.1-6.4,0.3-7.9      c0.2-1.6,0.7-3,1.7-4.3c0.9-1.3,2.2-2.3,3.7-2.9c1.6-0.7,3.4-1,5.5-1c2,0,3.8,0.3,5.4,1c1.6,0.7,2.8,1.6,3.8,2.9      c1,1.3,1.5,2.7,1.7,4.3c0.2,1.5,0.2,4.2,0.2,8V439.8z M148.5,427.6c0-1.7-0.1-2.8-0.3-3.3c-0.2-0.5-0.6-0.7-1.2-0.7      c-0.5,0-0.9,0.2-1.1,0.6c-0.3,0.4-0.4,1.5-0.4,3.5V445c0,2.1,0.1,3.5,0.3,4c0.2,0.5,0.6,0.7,1.2,0.7c0.6,0,1.1-0.3,1.3-0.9      c0.2-0.6,0.3-2,0.3-4.1V427.6z"
             id="path81" /><path
             class="st4"
             d="M163.3,418.1h6.8c4.6,0,7.6,0.2,9.2,0.5c1.6,0.4,2.9,1.3,4,2.7c1,1.4,1.5,3.7,1.5,6.9      c0,2.9-0.4,4.8-1.1,5.8c-0.7,1-2.1,1.6-4.3,1.8c1.9,0.5,3.2,1.1,3.9,1.9c0.6,0.8,1,1.5,1.2,2.2c0.1,0.7,0.2,2.5,0.2,5.5v9.8h-9      v-12.4c0-2-0.2-3.2-0.5-3.7c-0.3-0.5-1.1-0.7-2.5-0.7v16.8h-9.7V418.1z M172.9,424.5v8.3c1.1,0,1.8-0.2,2.3-0.5      c0.4-0.3,0.6-1.3,0.6-2.9v-2c0-1.2-0.2-1.9-0.6-2.3C174.8,424.6,174,424.5,172.9,424.5z"
             id="path83" /><path
             class="st4"
             d="M197.7,418.1v37.2H188v-37.2H197.7z"
             id="path85" /><path
             class="st4"
             d="M219.5,418.1l5.6,37.2h-9.9l-0.5-6.7h-3.4l-0.6,6.7h-10l4.9-37.2H219.5z M214.4,442      c-0.5-4.2-1-9.4-1.5-15.6c-1,7.1-1.6,12.3-1.9,15.6H214.4z"
             id="path87" /><path
             class="st4"
             d="M235,418.1h7.2c4.7,0,7.8,0.2,9.5,0.7c1.7,0.4,2.9,1.1,3.8,2.1c0.8,1,1.4,2.1,1.6,3.3      c0.2,1.2,0.3,3.6,0.3,7.1v13c0,3.3-0.2,5.6-0.5,6.7c-0.3,1.1-0.9,2-1.7,2.6c-0.8,0.6-1.7,1.1-2.9,1.3c-1.1,0.3-2.8,0.4-5.2,0.4      H235V418.1z M244.6,424.5v24.4c1.4,0,2.2-0.3,2.6-0.8c0.3-0.6,0.5-2.1,0.5-4.6v-14.5c0-1.7-0.1-2.8-0.2-3.2      c-0.1-0.5-0.4-0.8-0.7-1C246.4,424.6,245.7,424.5,244.6,424.5z"
             id="path89" /><path
             class="st4"
             d="M262.2,418.1h16.1v7.4h-6.5v7.1h6.1v7.1h-6.1v8.2h7.1v7.4h-16.8V418.1z"
             id="path91" /><path
             class="st4"
             d="M291.6,418.1v29.7h5.9v7.4h-15.5v-37.2H291.6z"
             id="path93" /><path
             class="st4"
             d="M306.7,418.1h9.7c2.6,0,4.6,0.2,6,0.6c1.4,0.4,2.5,1,3.2,1.8c0.7,0.8,1.2,1.7,1.5,2.8      c0.2,1.1,0.4,2.8,0.4,5.1v3.2c0,2.4-0.2,4.1-0.8,5.2c-0.5,1.1-1.4,1.9-2.7,2.5c-1.3,0.6-3,0.9-5.1,0.9h-2.6v15h-9.7V418.1z       M316.4,424.5v9.4c0.3,0,0.5,0,0.7,0c0.9,0,1.5-0.2,1.9-0.7c0.3-0.4,0.5-1.3,0.5-2.7v-3c0-1.3-0.2-2.1-0.6-2.5      C318.5,424.6,317.6,424.5,316.4,424.5z"
             id="path95" /><path
             class="st4"
             d="M353.4,418.1v24.8c0,2.8-0.1,4.8-0.3,5.9c-0.2,1.1-0.7,2.3-1.6,3.5c-0.9,1.2-2.1,2.1-3.6,2.7      c-1.5,0.6-3.2,0.9-5.2,0.9c-2.2,0-4.2-0.4-5.9-1.1c-1.7-0.7-3-1.7-3.8-2.9c-0.9-1.2-1.4-2.4-1.5-3.7c-0.1-1.3-0.2-4-0.2-8.2v-22      h9.7V446c0,1.6,0.1,2.7,0.3,3.1c0.2,0.4,0.5,0.7,1,0.7c0.6,0,1-0.2,1.2-0.7c0.2-0.5,0.3-1.7,0.3-3.5v-27.4H353.4z"
             id="path97" /><path
             class="st4"
             d="M358.7,418.1h16.1v7.4h-6.4v7.1h6v7.1h-6v8.2h7.1v7.4h-16.7V418.1z"
             id="path99" /><path
             class="st4"
             d="M378.4,418.1h9.6c3,0,5.3,0.3,6.9,0.7c1.6,0.4,2.8,1.4,3.8,2.9c1,1.5,1.4,3.8,1.4,7c0,2.2-0.3,3.7-1,4.5      c-0.7,0.9-2,1.5-4,2c2.2,0.5,3.7,1.4,4.5,2.5c0.8,1.2,1.2,3,1.2,5.4v3.5c0,2.5-0.3,4.4-0.8,5.6c-0.6,1.2-1.5,2.1-2.8,2.5      c-1.2,0.4-3.8,0.7-7.7,0.7h-11.2V418.1z M388.1,424.5v8.3c0.4,0,0.7,0,1,0c0.9,0,1.5-0.2,1.8-0.7c0.2-0.5,0.4-1.8,0.4-4      c0-1.2-0.1-2-0.3-2.5c-0.2-0.5-0.5-0.8-0.8-0.9C389.7,424.5,389.1,424.5,388.1,424.5z M388.1,438.5v10.4c1.4,0,2.2-0.3,2.6-0.6      c0.4-0.4,0.6-1.3,0.6-2.8V442c0-1.6-0.2-2.6-0.5-2.9C390.4,438.7,389.5,438.6,388.1,438.5z"
             id="path101" /><path
             class="st4"
             d="M415.3,418.1v29.7h5.9v7.4h-15.5v-37.2H415.3z"
             id="path103" /><path
             class="st4"
             d="M445,439.8c0,3.7-0.1,6.4-0.3,7.9c-0.2,1.6-0.7,3-1.6,4.3c-0.9,1.3-2.2,2.3-3.8,3c-1.6,0.7-3.4,1-5.5,1      c-2,0-3.8-0.3-5.3-1c-1.6-0.7-2.9-1.6-3.8-2.9c-1-1.3-1.5-2.7-1.7-4.2c-0.2-1.5-0.3-4.2-0.3-8v-6.3c0-3.7,0.1-6.4,0.3-7.9      c0.2-1.6,0.7-3,1.6-4.3c0.9-1.3,2.2-2.3,3.8-2.9c1.5-0.7,3.4-1,5.5-1c2,0,3.8,0.3,5.4,1c1.6,0.7,2.9,1.6,3.8,2.9      c1,1.3,1.5,2.7,1.7,4.3c0.2,1.5,0.3,4.2,0.3,8V439.8z M435.4,427.6c0-1.7-0.1-2.8-0.3-3.3c-0.2-0.5-0.6-0.7-1.2-0.7      c-0.5,0-0.9,0.2-1.2,0.6c-0.3,0.4-0.4,1.5-0.4,3.5V445c0,2.1,0.1,3.5,0.3,4c0.2,0.5,0.6,0.7,1.2,0.7c0.7,0,1.1-0.3,1.3-0.9      c0.2-0.6,0.3-2,0.3-4.1V427.6z"
             id="path105" /></g><polygon
           class="st4"
           points="192,414.8 197.7,414.8 204.1,407.9 198.4,407.9    "
           id="polygon107" /></g></g><g
       id="g109" /><g
       id="g155" /></g><g
     id="g159"><g
       id="g161"><path
         class="st0"
         d="M865,156.4h63.5c-5.3,19.2-4.8,20,2.6,26.5c16.4,14.1,55.9,33.3,70.6,45.9l0.1,1c-7.2,0.7-15.5,2.3-17.5,16.3    c0.8,9.8,6.1,16,17.5,16.5l0.1,1.8h-10.1l-17.3,19.2l2.5,10.2l-10.7,27.9l12.6,14.9l-3.2,31.8l14.4,0.1v9.7H865V156.4z"
         id="path163" /><path
         class="st0"
         d="M1307.1,155.9l-79.1,0.2c19.7,61.4,20.8,99.6-31,135.5l-0.1,86.8l110.2-0.2L1307.1,155.9z"
         id="path165" /><path
         class="st1"
         d="M966.2-4c76.6,40.9,167.1,140.1,203.4,136.4c13.8-12.5,9.1-41.7,10.8-65.5c1.8-24.5,9-37.4,41-34.4    c-2.7,10.5-2.5,20.8-3.1,31c-4.6,83.3,50.2,159.3,1,212.4c-10.8,11.7-27.8,18.4-47.9,17.8c-47.2-9.6-189.9-82.6-230.2-116.4    c-10.7-9-5.9-10-0.5-31.5c31.1,18.9,64.1,36.8,96.1,55.2c-29.5-29.2-91.7-64.2-116.1-79.4c-9.8-6.1-1.7-19.7,0.8-33    c46.9,25.2,91,53.2,136.6,79.9c-40.6-38.3-106.2-77.3-135.3-98.3c-5.9-4.3,1.6-25.7,5.1-36.4c55.6,34.4,110.3,71.7,164.4,109.9    c-22-25.8-58.4-52.8-79.6-71c-28.4-24.3-49.3-30.4-56.1-46C953.7,19.9,958.7,11.7,966.2-4L966.2-4z"
         id="path167" /><path
         class="st2"
         d="M966.2-4c76.6,40.9,167.1,140.1,203.4,136.4c13.8-12.5,9.1-41.7,10.8-65.5c1.8-24.5,9-37.4,41-34.4    c-2.7,10.5-2.5,20.8-3.1,31c-4.6,83.3,50.2,159.3,1,212.4c-10.8,11.7-27.8,18.4-47.9,17.8c-47.2-9.6-189.9-82.6-230.2-116.4    c-10.7-9-5.9-10-0.5-31.5c31.1,18.9,64.1,36.8,96.1,55.2c-29.5-29.2-91.7-64.2-116.1-79.4c-9.8-6.1-1.7-19.7,0.8-33    c46.9,25.2,91,53.2,136.6,79.9c-40.6-38.3-106.2-77.3-135.3-98.3c-5.9-4.3,1.6-25.7,5.1-36.4c55.6,34.4,110.3,71.7,164.4,109.9    c-22-25.8-58.4-52.8-79.6-71c-28.4-24.3-49.3-30.4-56.1-46C953.7,19.9,958.7,11.7,966.2-4L966.2-4z"
         id="path169" /><path
         class="st3"
         d="M955.2,1.9c76.7,41,167.1,140.2,203.4,136.4c13.8-12.5,9-41.7,10.8-65.4c1.8-24.6,9.1-37.5,41.1-34.4    c-2.7,10.4-2.5,20.7-3.1,31c-4.6,83.2,50.2,159.3,1.1,212.4c-10.8,11.7-27.9,18.5-47.9,17.8c-47.1-9.6-189.9-82.6-230.2-116.4    c-10.7-8.9-5.9-10-0.5-31.4c31.1,18.8,64,36.7,96.1,55.1c-29.5-29.1-91.7-64.2-116.1-79.3c-9.8-6.2-1.7-19.7,0.7-33    c47,25.2,91.1,53.3,136.7,79.8c-40.5-38.2-106.2-77.3-135.3-98.3c-5.8-4.2,1.7-25.6,5.1-36.4c55.6,34.5,110.3,71.7,164.4,109.9    c-21.9-25.8-58.5-52.8-79.6-71c-28.5-24.3-49.3-30.4-56.1-45.9C942.7,25.8,947.8,17.7,955.2,1.9L955.2,1.9z"
         id="path171" /><rect
         x="1001.4"
         y="229.2"
         class="st3"
         width="195.8"
         height="149.7"
         id="rect173" /><polygon
         class="st2"
         points="1171.1,378.5 1197.3,378.6 1197.1,293 1194.7,248.1 1169.2,248.1   "
         id="polygon175" /><path
         class="st2"
         d="M1180.2,213.6c8.3,0,14.9,6.9,14.9,15.4c0,8.5-6.6,15.3-14.9,15.3c-8.3,0-15-6.9-15-15.3    C1165.3,220.4,1172,213.6,1180.2,213.6L1180.2,213.6z"
         id="path177" /><polygon
         class="st3"
         points="1161.1,378.6 1171.1,378.6 1171,369.3 1187.1,369.3 1186.9,283.7 1184.5,238.8 1159,238.8   "
         id="polygon179" /><path
         class="st3"
         d="M1170.1,204.3c8.3,0,14.9,6.9,14.9,15.4c0,8.5-6.6,15.3-14.9,15.3c-8.3,0-15-6.8-15-15.3    C1155.1,211.2,1161.8,204.3,1170.1,204.3L1170.1,204.3z"
         id="path181" /><path
         class="st2"
         d="M1096.7,379.2l-29,0.2l-2.9-149.4l13.8-21.3c6-1.1,18.6,4.1,17.4,17.1c-0.5,5.8-1.9,14.9-17.3,14.4l-0.2,2.7    l19.7,7.7l-2.6,44.8L1096.7,379.2z"
         id="path183" /><path
         class="st3"
         d="M1083,361.7h-30l-0.4-133.5l12.1-26.4c6.1-1,18.6,4.1,17.4,17.1c-0.5,5.8-1.9,14.9-17.3,14.5l-0.2,2.7    l19.8,7.7l-2.6,44.8L1083,361.7z"
         id="path185" /><polygon
         class="st1"
         points="1107.8,379.1 1129.5,379.1 1124.6,341.3 1135.9,332 1131.8,294.6 1135.3,282.6 1121.9,264     1107,262.9 1091.9,306.7 1104.1,312.2 1096.4,337.8 1107.9,339.5   "
         id="polygon187" /><path
         class="st2"
         d="M1119.1,229.5c8.4,0,15.2,7.2,15.2,16.1c0,8.8-6.8,16.1-15.2,16.1c-8.4,0-15.2-7.2-15.2-16.1    C1103.9,236.8,1110.7,229.5,1119.1,229.5L1119.1,229.5z"
         id="path189" /><polygon
         class="st3"
         points="1095.4,379.4 1107,378.9 1107.1,369.2 1118.2,369.2 1115.7,334.9 1124.8,328.4 1120.5,289.2     1124.2,276.5 1110,257 1094.5,255.8 1078.7,301.9 1091.4,307.6 1083.4,334.4 1095.4,336.2   "
         id="polygon191" /><path
         class="st3"
         d="M1107.6,221.6c8.4,0,15.2,7.2,15.2,16.1c0,8.8-6.8,16-15.2,16c-8.4,0-15.2-7.2-15.2-16    C1092.3,228.9,1099.2,221.6,1107.6,221.6L1107.6,221.6z"
         id="path193" /><polygon
         class="st2"
         points="1138.9,378.9 1163,378.9 1163.5,358.7 1173.9,358.7 1169.7,343.3 1176.5,341.2 1158,314.7     1142.4,314.7 1134.3,341.2 1143.2,345.3 1136.4,353.8   "
         id="polygon195" /><path
         class="st2"
         d="M1152.5,284.5c6.9,0,12.5,5.9,12.5,13c0,7.2-5.6,13-12.5,13c-6.9,0-12.5-5.8-12.5-13    C1140,290.4,1145.6,284.5,1152.5,284.5L1152.5,284.5z"
         id="path197" /><polygon
         class="st3"
         points="1129.5,378.8 1141.5,378.9 1142.1,371.2 1152.6,371.2 1153.1,351.5 1163.5,351.4 1159.3,336     1166.2,333.9 1147.6,307.5 1132.1,307.5 1123.9,333.9 1132.8,338.1 1126.1,346.5   "
         id="polygon199" /><path
         class="st3"
         d="M1142.2,277.3c6.9,0,12.5,5.8,12.5,13c0,7.2-5.7,13-12.5,13c-6.9,0-12.5-5.9-12.5-13    C1129.7,283.1,1135.3,277.3,1142.2,277.3L1142.2,277.3z"
         id="path201" /><path
         class="st2"
         d="M1011.1,239.9c8.5,0,15.5,7.3,15.5,16.2c0,8.9-7,16.2-15.5,16.2c-8.6,0-15.5-7.3-15.5-16.2    C995.7,247.2,1002.6,239.9,1011.1,239.9L1011.1,239.9z"
         id="path203" /><polygon
         class="st2"
         points="1026.8,378.1 988.6,378.1 991.8,346.5 979.5,332.4 990.4,302.7 987.5,293.1 1005.2,274.2     1015.8,274.2 1023.3,296.6 1018,308 1028.2,338.6 1013.1,344.6   "
         id="polygon205" /><path
         class="st3"
         d="M994.3,232.3c8.6,0,15.5,7.3,15.5,16.2c0,9-6.9,16.2-15.5,16.2c-8.5,0-15.5-7.2-15.5-16.2    C978.8,239.6,985.8,232.3,994.3,232.3L994.3,232.3z"
         id="path207" /><polygon
         class="st3"
         points="1009.9,370.5 971.8,370.5 974.9,338.9 962.7,324.8 973.5,295.1 970.6,285.6 988.3,266.6 998.9,266.6     1006.3,289 1001.2,300.4 1011.4,331 996.3,337   "
         id="polygon209" /><polygon
         class="st2"
         points="1032.3,377.8 1057.2,377.8 1057.2,352.7 1058.9,327.5 1051.6,314.5 1037.9,314.1 1030.4,325.8     1031.1,362.1   "
         id="polygon211" /><path
         class="st2"
         d="M1041.5,285.7c7,0,12.6,5.8,12.6,12.9c0,7.1-5.6,12.9-12.6,12.9c-7,0-12.6-5.8-12.6-12.9    C1028.9,291.5,1034.5,285.7,1041.5,285.7L1041.5,285.7z"
         id="path213" /><polygon
         class="st3"
         points="1020,366.1 1045,366.1 1045,341.2 1046.7,315.8 1039.3,302.9 1025.7,302.5 1018.1,314.2     1018.8,350.5   "
         id="polygon215" /><path
         class="st3"
         d="M1029.3,274.1c7,0,12.7,5.7,12.7,12.9c0,7-5.6,12.8-12.7,12.8c-6.9,0-12.7-5.7-12.7-12.8    C1016.6,279.8,1022.4,274.1,1029.3,274.1L1029.3,274.1z"
         id="path217" /><g
         id="g219"><path
           class="st4"
           d="M865.1,414.1h7.2c4.7,0,7.8,0.2,9.5,0.7c1.6,0.4,2.9,1.1,3.7,2.1c0.9,1,1.4,2.1,1.6,3.3     c0.2,1.2,0.3,3.6,0.3,7.1v13c0,3.3-0.2,5.6-0.5,6.7c-0.3,1.1-0.9,2-1.7,2.6c-0.8,0.6-1.7,1.1-2.9,1.3c-1.2,0.3-2.9,0.4-5.2,0.4     h-12.2V414.1z M874.7,420.5v24.4c1.4,0,2.3-0.3,2.6-0.8c0.3-0.6,0.5-2.1,0.5-4.6v-14.5c0-1.7-0.1-2.8-0.2-3.2     c-0.1-0.5-0.3-0.8-0.7-1C876.5,420.6,875.8,420.5,874.7,420.5z"
           id="path221" /><path
           class="st4"
           d="M892.3,414.1h16.1v7.4H902v7.1h6v7.1h-6v8.2h7.1v7.4h-16.8V414.1z"
           id="path223" /><path
           class="st4"
           d="M912.1,414.1h16.4v7.4h-6.7v7.1h6v7.1h-6v15.6h-9.7V414.1z"
           id="path225" /><path
           class="st4"
           d="M931.8,414.1h16.1v7.4h-6.4v7.1h6v7.1h-6v8.2h7.1v7.4h-16.8V414.1z"
           id="path227" /><path
           class="st4"
           d="M973.2,414.1v37.2h-8.5l-5-16.9v16.9h-8.1v-37.2h8.1l5.4,16.7v-16.7H973.2z"
           id="path229" /><path
           class="st4"
           d="M996.8,425.3h-9v-2.8c0-1.3-0.1-2.1-0.4-2.5c-0.2-0.3-0.6-0.5-1.2-0.5c-0.6,0-1,0.2-1.3,0.7     c-0.3,0.5-0.5,1.2-0.5,2.2c0,1.2,0.2,2.2,0.5,2.8c0.4,0.6,1.2,1.4,2.8,2.3c4.3,2.5,7,4.7,8.1,6.3c1.1,1.7,1.7,4.3,1.7,7.9     c0,2.6-0.3,4.6-0.9,5.8c-0.6,1.3-1.8,2.3-3.6,3.2c-1.8,0.9-3.8,1.3-6.2,1.3c-2.6,0-4.8-0.5-6.6-1.5c-1.8-1-3-2.2-3.6-3.7     c-0.6-1.5-0.8-3.7-0.8-6.5V438h9v4.5c0,1.4,0.1,2.3,0.4,2.7c0.3,0.4,0.7,0.6,1.4,0.6c0.7,0,1.1-0.2,1.4-0.7     c0.3-0.5,0.5-1.3,0.5-2.3c0-2.2-0.3-3.6-0.9-4.3c-0.6-0.7-2.1-1.8-4.5-3.4c-2.4-1.6-4-2.7-4.8-3.5c-0.8-0.7-1.4-1.7-1.9-3     c-0.5-1.3-0.8-2.9-0.8-4.9c0-2.8,0.4-4.9,1.1-6.2c0.7-1.3,1.9-2.3,3.5-3.1c1.6-0.8,3.6-1.1,5.9-1.1c2.5,0,4.6,0.4,6.4,1.2     c1.8,0.8,3,1.8,3.5,3.1c0.6,1.2,0.9,3.3,0.9,6.3V425.3z"
           id="path231" /><path
           class="st4"
           d="M1023.1,435.8c0,3.7-0.1,6.4-0.2,7.9c-0.2,1.6-0.7,3-1.6,4.3c-1,1.3-2.2,2.3-3.8,3c-1.6,0.7-3.4,1-5.5,1     c-2,0-3.8-0.3-5.4-1c-1.6-0.7-2.8-1.6-3.8-2.9c-1-1.3-1.5-2.7-1.7-4.2c-0.2-1.5-0.3-4.2-0.3-8v-6.3c0-3.7,0.1-6.4,0.3-7.9     c0.2-1.6,0.7-3,1.7-4.3c0.9-1.3,2.2-2.3,3.7-2.9c1.6-0.7,3.4-1,5.5-1c2,0,3.8,0.3,5.4,1c1.6,0.7,2.8,1.6,3.8,2.9     c1,1.3,1.5,2.7,1.7,4.3c0.2,1.5,0.2,4.2,0.2,8V435.8z M1013.5,423.6c0-1.7-0.1-2.8-0.3-3.3c-0.2-0.5-0.6-0.7-1.2-0.7     c-0.5,0-0.9,0.2-1.1,0.6c-0.3,0.4-0.4,1.5-0.4,3.5V441c0,2.1,0.1,3.5,0.3,4c0.2,0.5,0.6,0.7,1.2,0.7c0.6,0,1.1-0.3,1.3-0.9     c0.2-0.6,0.3-2,0.3-4.1V423.6z"
           id="path233" /><path
           class="st4"
           d="M1028.3,414.1h6.8c4.6,0,7.7,0.2,9.2,0.5c1.6,0.4,2.9,1.3,4,2.7c1,1.4,1.5,3.7,1.5,6.9     c0,2.9-0.4,4.8-1.1,5.8c-0.7,1-2.1,1.6-4.3,1.8c1.9,0.5,3.2,1.1,3.9,1.9c0.6,0.8,1,1.5,1.2,2.2c0.1,0.7,0.2,2.5,0.2,5.5v9.8h-9     v-12.4c0-2-0.2-3.2-0.5-3.7c-0.3-0.5-1.1-0.7-2.5-0.7v16.8h-9.7V414.1z M1037.9,420.5v8.3c1.1,0,1.8-0.2,2.3-0.5     c0.4-0.3,0.6-1.3,0.6-2.9v-2c0-1.2-0.2-1.9-0.6-2.3C1039.8,420.6,1039,420.5,1037.9,420.5z"
           id="path235" /><path
           class="st4"
           d="M1062.7,414.1v37.2h-9.7v-37.2H1062.7z"
           id="path237" /><path
           class="st4"
           d="M1084.5,414.1l5.6,37.2h-9.9l-0.5-6.7h-3.4l-0.6,6.7h-10l4.9-37.2H1084.5z M1079.4,438     c-0.5-4.2-1-9.4-1.5-15.6c-1,7.1-1.6,12.3-1.9,15.6H1079.4z"
           id="path239" /><path
           class="st4"
           d="M1100,414.1h7.2c4.7,0,7.8,0.2,9.5,0.7c1.7,0.4,2.9,1.1,3.8,2.1c0.8,1,1.4,2.1,1.6,3.3     c0.2,1.2,0.3,3.6,0.3,7.1v13c0,3.3-0.2,5.6-0.5,6.7c-0.3,1.1-0.9,2-1.7,2.6c-0.8,0.6-1.7,1.1-2.9,1.3c-1.1,0.3-2.8,0.4-5.2,0.4     H1100V414.1z M1109.6,420.5v24.4c1.4,0,2.2-0.3,2.6-0.8c0.3-0.6,0.5-2.1,0.5-4.6v-14.5c0-1.7-0.1-2.8-0.2-3.2     c-0.1-0.5-0.4-0.8-0.7-1C1111.4,420.6,1110.7,420.5,1109.6,420.5z"
           id="path241" /><path
           class="st4"
           d="M1127.2,414.1h16.1v7.4h-6.5v7.1h6.1v7.1h-6.1v8.2h7.1v7.4h-16.8V414.1z"
           id="path243" /><path
           class="st4"
           d="M1156.6,414.1v29.7h5.9v7.4h-15.5v-37.2H1156.6z"
           id="path245" /><path
           class="st4"
           d="M1171.7,414.1h9.7c2.6,0,4.6,0.2,6,0.6c1.4,0.4,2.5,1,3.2,1.8c0.7,0.8,1.2,1.7,1.5,2.8     c0.2,1.1,0.4,2.8,0.4,5.1v3.2c0,2.4-0.2,4.1-0.8,5.2c-0.5,1.1-1.4,1.9-2.7,2.5c-1.3,0.6-3,0.9-5.1,0.9h-2.6v15h-9.7V414.1z      M1181.4,420.5v9.4c0.3,0,0.5,0,0.7,0c0.9,0,1.5-0.2,1.9-0.7c0.3-0.4,0.5-1.3,0.5-2.7v-3c0-1.3-0.2-2.1-0.6-2.5     C1183.5,420.6,1182.6,420.5,1181.4,420.5z"
           id="path247" /><path
           class="st4"
           d="M1218.4,414.1v24.8c0,2.8-0.1,4.8-0.3,5.9c-0.2,1.1-0.7,2.3-1.6,3.5c-0.9,1.2-2.1,2.1-3.6,2.7     c-1.5,0.6-3.2,0.9-5.2,0.9c-2.2,0-4.2-0.4-5.9-1.1c-1.7-0.7-3-1.7-3.8-2.9c-0.9-1.2-1.4-2.4-1.5-3.7c-0.1-1.3-0.2-4-0.2-8.2v-22     h9.7V442c0,1.6,0.1,2.7,0.3,3.1c0.2,0.4,0.5,0.7,1,0.7c0.6,0,1-0.2,1.2-0.7c0.2-0.5,0.3-1.7,0.3-3.5v-27.4H1218.4z"
           id="path249" /><path
           class="st4"
           d="M1223.7,414.1h16.1v7.4h-6.4v7.1h6v7.1h-6v8.2h7.1v7.4h-16.7V414.1z"
           id="path251" /><path
           class="st4"
           d="M1243.4,414.1h9.6c3,0,5.3,0.3,6.9,0.7c1.6,0.4,2.8,1.4,3.8,2.9c1,1.5,1.4,3.8,1.4,7c0,2.2-0.3,3.7-1,4.5     c-0.7,0.9-2,1.5-4,2c2.2,0.5,3.7,1.4,4.5,2.5c0.8,1.2,1.2,3,1.2,5.4v3.5c0,2.5-0.3,4.4-0.8,5.6c-0.6,1.2-1.5,2.1-2.8,2.5     c-1.2,0.4-3.8,0.7-7.7,0.7h-11.2V414.1z M1253.1,420.5v8.3c0.4,0,0.7,0,1,0c0.9,0,1.5-0.2,1.8-0.7c0.2-0.5,0.4-1.8,0.4-4     c0-1.2-0.1-2-0.3-2.5c-0.2-0.5-0.5-0.8-0.8-0.9C1254.7,420.5,1254.1,420.5,1253.1,420.5z M1253.1,434.5v10.4     c1.4,0,2.2-0.3,2.6-0.6c0.4-0.4,0.6-1.3,0.6-2.8V438c0-1.6-0.2-2.6-0.5-2.9C1255.4,434.7,1254.5,434.6,1253.1,434.5z"
           id="path253" /><path
           class="st4"
           d="M1280.3,414.1v29.7h5.9v7.4h-15.5v-37.2H1280.3z"
           id="path255" /><path
           class="st4"
           d="M1310,435.8c0,3.7-0.1,6.4-0.3,7.9c-0.2,1.6-0.7,3-1.6,4.3c-0.9,1.3-2.2,2.3-3.8,3c-1.6,0.7-3.4,1-5.5,1     c-2,0-3.8-0.3-5.3-1c-1.6-0.7-2.9-1.6-3.8-2.9c-1-1.3-1.5-2.7-1.7-4.2c-0.2-1.5-0.3-4.2-0.3-8v-6.3c0-3.7,0.1-6.4,0.3-7.9     c0.2-1.6,0.7-3,1.6-4.3c0.9-1.3,2.2-2.3,3.8-2.9c1.5-0.7,3.4-1,5.5-1c2,0,3.8,0.3,5.4,1c1.6,0.7,2.9,1.6,3.8,2.9     c1,1.3,1.5,2.7,1.7,4.3c0.2,1.5,0.3,4.2,0.3,8V435.8z M1300.4,423.6c0-1.7-0.1-2.8-0.3-3.3c-0.2-0.5-0.6-0.7-1.2-0.7     c-0.5,0-0.9,0.2-1.2,0.6c-0.3,0.4-0.4,1.5-0.4,3.5V441c0,2.1,0.1,3.5,0.3,4c0.2,0.5,0.6,0.7,1.2,0.7c0.7,0,1.1-0.3,1.3-0.9     c0.2-0.6,0.3-2,0.3-4.1V423.6z"
           id="path257" /></g><polygon
         class="st4"
         points="1057,410.8 1062.7,410.8 1069.1,403.9 1063.4,403.9   "
         id="polygon259" /></g></g><text
     transform="matrix(1 0 0 1 955.5056 491.0979)"
     id="text261"><tspan
       x="0"
       y="0"
       class="st4"
       style="font-family:'Montserrat-Italic'; font-size:22.6589px;"
       id="tspan263">En </tspan><tspan
       x="28.5"
       y="0"
       class="st4"
       style="font-family:'Montserrat-Regular'; font-size:22.6589px;"
       id="tspan265">ACCIÓN</tspan><tspan
       x="104.6"
       y="0"
       class="st4"
       style="font-family:'Montserrat-Italic'; font-size:22.6589px;"
       id="tspan267"> por tus </tspan><tspan
       x="180.7"
       y="0"
       class="st4"
       style="font-family:'Montserrat-Regular'; font-size:22.6589px;"
       id="tspan269">DERECHOS</tspan></text>
<line
     class="st5"
     x1="865.5"
     y1="483.5"
     x2="949"
     y2="483"
     id="line271" /></svg>